HIERARCHY
ROOT Hips
{
	OFFSET 0.000000 100.481300 0.000000
	CHANNELS 6 Xposition Yposition Zposition Xrotation Yrotation Zrotation
	JOINT Spine
	{
		OFFSET -0.279200 12.230698 -2.892100
		CHANNELS 3 Xrotation Yrotation Zrotation
		JOINT Spine1
		{
			OFFSET -0.325700 14.269203 -3.374200
			CHANNELS 3 Xrotation Yrotation Zrotation
			JOINT Spine2
			{
				OFFSET -0.372300 16.307602 -0.352600
				CHANNELS 3 Xrotation Yrotation Zrotation
				JOINT Neck
				{
					OFFSET -0.418800 17.814194 8.416900
					CHANNELS 3 Xrotation Yrotation Zrotation
					JOINT Head
					{
						OFFSET 0.000000 7.031097 3.806800
						CHANNELS 3 Xrotation Yrotation Zrotation
						JOINT HeadTop_End
						{
							OFFSET 0.000000 24.646606 12.978600
							CHANNELS 3 Xrotation Yrotation Zrotation
							End Site
							{
								OFFSET 0.000000 27.854965 0.000000
							}
						}
					}
				}
				JOINT LeftShoulder
				{
					OFFSET 16.952999 14.495407 -7.737500
					CHANNELS 3 Xrotation Yrotation Zrotation
					JOINT LeftArm
					{
						OFFSET 9.308998 -2.777710 0.208600
						CHANNELS 3 Xrotation Yrotation Zrotation
						JOINT LeftForeArm
						{
							OFFSET 29.972298 0.000000 0.000000
							CHANNELS 3 Xrotation Yrotation Zrotation
							JOINT LeftHand
							{
								OFFSET 26.026505 0.000000 0.000000
								CHANNELS 3 Xrotation Yrotation Zrotation
								JOINT LeftHandThumb1
								{
									OFFSET 12.240501 -7.147949 9.207150
									CHANNELS 3 Xrotation Yrotation Zrotation
									JOINT LeftHandThumb2
									{
										OFFSET 4.138618 -2.389435 2.389433
										CHANNELS 3 Xrotation Yrotation Zrotation
										JOINT LeftHandThumb3
										{
											OFFSET 2.726913 -1.574387 1.574386
											CHANNELS 3 Xrotation Yrotation Zrotation
											JOINT LeftHandThumb4
											{
												OFFSET 3.941010 -2.275345 2.275342
												CHANNELS 3 Xrotation Yrotation Zrotation
												End Site
												{
													OFFSET -0.005798 5.087799 0.009903
												}
											}
										}
									}
								}
								JOINT LeftHandIndex1
								{
									OFFSET 24.424698 -1.985611 5.953459
									CHANNELS 3 Xrotation Yrotation Zrotation
									JOINT LeftHandIndex2
									{
										OFFSET 6.426697 0.000000 0.000000
										CHANNELS 3 Xrotation Yrotation Zrotation
										JOINT LeftHandIndex3
										{
											OFFSET 5.337898 0.000000 0.000000
											CHANNELS 3 Xrotation Yrotation Zrotation
											JOINT LeftHandIndex4
											{
												OFFSET 4.409401 0.000000 0.000000
												CHANNELS 3 Xrotation Yrotation Zrotation
												End Site
												{
													OFFSET 0.000000 4.409363 0.014373
												}
											}
										}
									}
								}
								JOINT LeftHandMiddle1
								{
									OFFSET 23.810104 0.000000 0.000000
									CHANNELS 3 Xrotation Yrotation Zrotation
									JOINT LeftHandMiddle2
									{
										OFFSET 7.176498 0.000000 0.000000
										CHANNELS 3 Xrotation Yrotation Zrotation
										JOINT LeftHandMiddle3
										{
											OFFSET 6.774902 0.000000 0.000000
											CHANNELS 3 Xrotation Yrotation Zrotation
											JOINT LeftHandMiddle4
											{
												OFFSET 5.403328 0.000000 0.000000
												CHANNELS 3 Xrotation Yrotation Zrotation
												End Site
												{
													OFFSET -0.027702 5.403244 0.017414
												}
											}
										}
									}
								}
								JOINT LeftHandRing1
								{
									OFFSET 22.908401 -0.839279 -6.020567
									CHANNELS 3 Xrotation Yrotation Zrotation
									JOINT LeftHandRing2
									{
										OFFSET 6.337502 0.000000 0.000000
										CHANNELS 3 Xrotation Yrotation Zrotation
										JOINT LeftHandRing3
										{
											OFFSET 5.779297 0.000000 0.000000
											CHANNELS 3 Xrotation Yrotation Zrotation
											JOINT LeftHandRing4
											{
												OFFSET 4.965698 0.000000 0.000000
												CHANNELS 3 Xrotation Yrotation Zrotation
												End Site
												{
													OFFSET 0.000000 4.965668 0.016186
												}
											}
										}
									}
								}
								JOINT LeftHandPinky1
								{
									OFFSET 20.037003 -1.530319 -10.950146
									CHANNELS 3 Xrotation Yrotation Zrotation
									JOINT LeftHandPinky2
									{
										OFFSET 5.254700 0.000000 0.000000
										CHANNELS 3 Xrotation Yrotation Zrotation
										JOINT LeftHandPinky3
										{
											OFFSET 4.810204 0.000000 0.000000
											CHANNELS 3 Xrotation Yrotation Zrotation
											JOINT LeftHandPinky4
											{
												OFFSET 3.647202 0.000000 0.000000
												CHANNELS 3 Xrotation Yrotation Zrotation
												End Site
												{
													OFFSET 0.000000 3.647186 0.011889
												}
											}
										}
									}
								}
							}
						}
					}
				}
				JOINT RightShoulder
				{
					OFFSET -15.141001 14.495407 -7.737500
					CHANNELS 3 Xrotation Yrotation Zrotation
					JOINT RightArm
					{
						OFFSET -9.308998 -2.777710 0.208500
						CHANNELS 3 Xrotation Yrotation Zrotation
						JOINT RightForeArm
						{
							OFFSET -29.972300 0.000000 0.000000
							CHANNELS 3 Xrotation Yrotation Zrotation
							JOINT RightHand
							{
								OFFSET -26.026505 0.000000 0.000000
								CHANNELS 3 Xrotation Yrotation Zrotation
								JOINT RightHandThumb1
								{
									OFFSET -12.240601 -7.148026 9.207092
									CHANNELS 3 Xrotation Yrotation Zrotation
									JOINT RightHandThumb2
									{
										OFFSET -4.138618 -2.389435 2.389433
										CHANNELS 3 Xrotation Yrotation Zrotation
										JOINT RightHandThumb3
										{
											OFFSET -2.726974 -1.574417 1.574421
											CHANNELS 3 Xrotation Yrotation Zrotation
											JOINT RightHandThumb4
											{
												OFFSET -3.941010 -2.275345 2.275343
												CHANNELS 3 Xrotation Yrotation Zrotation
												End Site
												{
													OFFSET 0.005814 5.087799 0.009927
												}
											}
										}
									}
								}
								JOINT RightHandIndex1
								{
									OFFSET -24.424698 -1.985657 5.953444
									CHANNELS 3 Xrotation Yrotation Zrotation
									JOINT RightHandIndex2
									{
										OFFSET -6.426697 0.000000 0.000000
										CHANNELS 3 Xrotation Yrotation Zrotation
										JOINT RightHandIndex3
										{
											OFFSET -5.337898 0.000000 0.000000
											CHANNELS 3 Xrotation Yrotation Zrotation
											JOINT RightHandIndex4
											{
												OFFSET -4.409401 0.000000 0.000000
												CHANNELS 3 Xrotation Yrotation Zrotation
												End Site
												{
													OFFSET 0.000000 4.409363 0.014408
												}
											}
										}
									}
								}
								JOINT RightHandMiddle1
								{
									OFFSET -23.810097 0.000000 0.000000
									CHANNELS 3 Xrotation Yrotation Zrotation
									JOINT RightHandMiddle2
									{
										OFFSET -7.176498 0.000000 0.000000
										CHANNELS 3 Xrotation Yrotation Zrotation
										JOINT RightHandMiddle3
										{
											OFFSET -6.774902 0.000000 0.000000
											CHANNELS 3 Xrotation Yrotation Zrotation
											JOINT RightHandMiddle4
											{
												OFFSET -5.403328 0.000000 0.000000
												CHANNELS 3 Xrotation Yrotation Zrotation
												End Site
												{
													OFFSET 0.027702 5.403244 0.017457
												}
											}
										}
									}
								}
								JOINT RightHandRing1
								{
									OFFSET -22.908302 -0.839325 -6.020576
									CHANNELS 3 Xrotation Yrotation Zrotation
									JOINT RightHandRing2
									{
										OFFSET -6.337502 0.000000 0.000000
										CHANNELS 3 Xrotation Yrotation Zrotation
										JOINT RightHandRing3
										{
											OFFSET -5.779297 0.000000 0.000000
											CHANNELS 3 Xrotation Yrotation Zrotation
											JOINT RightHandRing4
											{
												OFFSET -4.965698 0.000000 0.000000
												CHANNELS 3 Xrotation Yrotation Zrotation
												End Site
												{
													OFFSET 0.000000 4.965668 0.016226
												}
											}
										}
									}
								}
								JOINT RightHandPinky1
								{
									OFFSET -20.037003 -1.530334 -10.950259
									CHANNELS 3 Xrotation Yrotation Zrotation
									JOINT RightHandPinky2
									{
										OFFSET -5.254700 0.000000 0.000000
										CHANNELS 3 Xrotation Yrotation Zrotation
										JOINT RightHandPinky3
										{
											OFFSET -4.810204 0.000000 0.000000
											CHANNELS 3 Xrotation Yrotation Zrotation
											JOINT RightHandPinky4
											{
												OFFSET -3.647202 0.000000 0.000000
												CHANNELS 3 Xrotation Yrotation Zrotation
												End Site
												{
													OFFSET 0.000000 3.647186 0.011917
												}
											}
										}
									}
								}
							}
						}
					}
				}
			}
		}
	}
	JOINT LeftUpLeg
	{
		OFFSET 15.427100 -6.655098 0.678600
		CHANNELS 3 Xrotation Yrotation Zrotation
		JOINT LeftLeg
		{
			OFFSET 4.081073 -39.591068 13.024000
			CHANNELS 3 Xrotation Yrotation Zrotation
			JOINT LeftFoot
			{
				OFFSET -4.081074 -37.707932 -15.979700
				CHANNELS 3 Xrotation Yrotation Zrotation
				JOINT LeftToeBase
				{
					OFFSET 5.346399 -15.068900 20.645000
					CHANNELS 3 Xrotation Yrotation Zrotation
					JOINT LeftToe_End
					{
						OFFSET 2.754700 0.931300 11.300900
						CHANNELS 3 Xrotation Yrotation Zrotation
						End Site
						{
							OFFSET 0.000000 11.669021 0.000000
						}
					}
				}
			}
		}
	}
	JOINT RightUpLeg
	{
		OFFSET -15.569500 -6.655098 0.678600
		CHANNELS 3 Xrotation Yrotation Zrotation
		JOINT RightLeg
		{
			OFFSET -4.081825 -39.591045 13.023800
			CHANNELS 3 Xrotation Yrotation Zrotation
			JOINT RightFoot
			{
				OFFSET 4.081824 -37.707954 -15.979600
				CHANNELS 3 Xrotation Yrotation Zrotation
				JOINT RightToeBase
				{
					OFFSET -5.346400 -15.068900 20.645000
					CHANNELS 3 Xrotation Yrotation Zrotation
					JOINT RightToe_End
					{
						OFFSET -2.754700 0.931300 11.300900
						CHANNELS 3 Xrotation Yrotation Zrotation
						End Site
						{
							OFFSET 0.000000 11.669021 0.000000
						}
					}
				}
			}
		}
	}
}
MOTION
Frames: 4
Frame Time: 0.033333
17.427526 68.339195 29.246120 -41.090845 -73.279003 -49.452352 19.810480 -4.376860 -2.700669 6.274502 1.778063 0.941709 6.320954 1.685992 0.966102 4.440908 19.905577 1.885103 -9.695986 49.240548 0.094494 -0.000000 -0.000000 0.000000 6.227899 -9.635151 2.319980 -42.401442 -1.886394 -47.643018 0.000007 -131.047261 -0.000011 -35.223665 -19.502591 -6.643296 -5.924156 -2.390080 11.576919 14.537212 28.505479 -16.519776 7.733973 44.513883 14.142467 -0.000002 0.000000 -0.000000 2.304416 7.799745 -83.037260 5.947943 5.850264 -90.950444 2.097341 4.491487 -50.043939 0.000001 -0.000001 -0.000002 3.193463 7.734598 -77.232084 5.673525 5.848396 -88.258236 2.535976 4.824013 -55.441489 0.000001 0.000001 0.000001 4.057583 7.987658 -81.473106 6.404822 5.824894 -95.440282 2.768324 4.975483 -58.161185 0.000002 -0.000000 0.000001 5.854512 8.252013 -85.727091 5.943471 5.850346 -90.906492 1.894956 4.314368 -47.408022 0.000002 0.000000 0.000002 1.730679 13.901401 -1.996853 -36.566388 29.969043 66.962710 -0.000002 122.985930 0.000008 -9.519545 19.151412 -20.112470 -1.593017 7.733194 1.184244 16.065016 -36.771095 3.202871 1.138358 -33.188900 -21.629534 -0.000001 0.000000 -0.000001 2.457334 -6.513154 76.274266 5.233162 -4.621487 97.112197 3.296981 -4.454525 73.000563 -0.000001 -0.000001 -0.000000 3.131440 -6.675975 75.123625 5.657562 -4.548678 102.417348 3.043099 -4.369088 69.701315 -0.000000 0.000000 -0.000002 3.487123 -6.769698 74.861161 5.840460 -4.504671 104.734551 3.333555 -4.465517 73.471047 -0.000000 -0.000000 0.000000 4.424256 -7.031664 76.936187 5.231359 -4.621718 97.089773 3.335951 -4.466218 73.501981 -0.000001 0.000001 -0.000002 -23.080264 15.141338 21.208692 80.690769 4.137732 10.824823 -38.777993 7.115860 -12.908774 -17.802659 0.000006 0.000011 -0.000000 -0.000001 -0.000000 -26.891420 -3.014471 -30.107368 34.704167 5.172054 -7.438207 4.444817 4.925753 35.854870 0.180001 -0.000172 0.158639 0.000000 0.000000 0.000000 
17.817198 68.966141 29.813387 -39.901419 -73.912223 -48.468078 20.015941 -1.757190 -1.065332 6.017520 1.831244 0.433483 6.042605 1.757160 0.438873 3.623123 19.513366 2.590608 -9.064636 47.287066 0.896577 -0.000000 0.000001 -0.000001 5.605292 -7.553874 0.401082 -34.465070 -0.507135 -52.856802 -0.000005 -129.762051 -0.000000 -33.301629 -19.693157 -4.958897 -5.933358 -2.497154 11.376237 14.506941 28.677512 -16.339156 7.652768 44.150397 14.308455 0.000001 -0.000000 -0.000000 2.255918 7.763349 -82.654107 5.944919 5.850333 -90.920719 2.097957 4.491988 -50.051619 0.000000 0.000000 -0.000002 3.137484 7.712029 -76.857865 5.677760 5.848496 -88.299688 2.531147 4.820697 -55.384044 0.000001 0.000000 0.000002 4.004457 7.972004 -81.044764 6.420882 5.823327 -95.598470 2.771748 4.977616 -58.200882 -0.000001 0.000000 0.000000 5.777575 8.306691 -85.314431 5.937268 5.850453 -90.845607 1.951151 4.365214 -48.150593 -0.000000 -0.000001 -0.000003 1.700654 14.842148 -0.642374 -37.136500 29.550513 67.313413 -0.000005 122.752310 0.000006 -10.285353 18.090712 -20.078009 -1.635522 7.770632 1.232472 15.991985 -36.853191 3.144440 1.120296 -32.967926 -21.703199 -0.000002 0.000001 -0.000001 2.411714 -6.482942 75.950693 5.225656 -4.622419 97.018971 3.279285 -4.449087 72.772640 -0.000001 0.000001 -0.000001 3.075408 -6.658247 74.749481 5.652040 -4.549883 102.347755 3.028018 -4.363503 69.503158 -0.000001 0.000002 -0.000002 3.441906 -6.757299 74.491430 5.846960 -4.502946 104.817087 3.324698 -4.462887 73.357482 0.000000 -0.000001 0.000000 4.352694 -7.079001 76.603297 5.221336 -4.622956 96.965245 3.372787 -4.476924 73.974514 -0.000003 0.000001 -0.000000 -23.491573 14.809592 20.336263 79.979664 4.677340 10.546474 -38.129739 6.998707 -12.568205 -18.166324 0.000005 0.000005 -0.000000 -0.000002 -0.000000 -26.888757 -3.560896 -30.410622 32.335888 4.832251 -6.975147 5.589613 6.057603 35.487276 0.241494 -0.000269 0.175699 0.000000 0.000000 -0.000000 
18.165150 69.667526 29.833393 -32.508548 -72.687317 -40.865848 20.706972 0.287976 0.028980 5.134199 1.755643 -0.184787 5.145388 1.687688 -0.192384 3.744045 18.643363 2.659420 -10.175695 44.068370 2.529364 -0.000000 -0.000000 -0.000001 5.139630 -6.227938 0.011322 -25.230580 -0.273589 -54.481185 -0.000004 -128.089297 -0.000000 -28.634771 -19.552706 -3.361563 -5.945264 -2.650613 11.093721 14.463776 28.918287 -16.084570 7.538101 43.639591 14.541085 -0.000002 -0.000001 -0.000000 2.186976 7.711423 -82.115697 5.940652 5.850376 -90.878966 2.098879 4.492786 -50.063548 0.000001 -0.000001 -0.000001 3.057182 7.678850 -76.327863 5.685009 5.848721 -88.371084 2.524681 4.816281 -55.307177 0.000002 0.000001 0.000001 3.928245 7.948866 -80.442013 6.444516 5.820999 -95.831365 2.776870 4.980754 -58.259847 -0.000001 0.000000 -0.000002 5.666448 8.382106 -84.734569 5.928559 5.850556 -90.760107 2.031097 4.435307 -49.192569 -0.000004 0.000002 0.000001 1.755316 14.911683 -0.918017 -39.245178 29.553672 69.433702 0.000036 120.281612 -0.000030 -10.387253 17.022968 -20.321672 -1.669773 7.776436 1.285761 15.862214 -36.976838 3.067768 1.079148 -32.609102 -21.802888 -0.000000 -0.000001 0.000000 2.345413 -6.439239 75.496683 5.215076 -4.623715 96.887968 3.254462 -4.441354 72.452447 -0.000001 0.000004 -0.000000 2.994055 -6.631636 74.224977 5.644110 -4.551617 102.247741 3.006189 -4.355312 69.216010 -0.000002 0.000002 -0.000001 3.375203 -6.738245 73.972998 5.855443 -4.500699 104.925352 3.311752 -4.459007 73.190770 -0.000002 -0.000001 0.000001 4.247859 -7.143601 76.136003 5.207225 -4.624654 96.790297 3.424693 -4.491466 74.638320 -0.000001 -0.000003 -0.000001 -25.334572 14.069829 18.928418 79.089247 4.400041 11.050082 -37.050136 5.555543 -11.348251 -18.240350 -0.000001 -0.000007 -0.000001 0.000001 0.000000 -25.424741 -4.216109 -31.045805 30.968563 6.223008 -6.930030 4.949497 3.813059 35.187874 0.217309 -0.000199 0.160533 -0.000000 0.000000 -0.000000 
18.155205 70.226425 29.140430 -22.248954 -69.964100 -30.053731 20.333545 2.066891 0.275341 4.121189 1.695048 -0.438718 4.125825 1.633520 -0.462632 4.077123 17.657509 2.327324 -10.686324 39.262796 3.491719 -0.000001 -0.000000 0.000000 5.350444 -6.778414 -1.155702 -20.142641 0.172658 -53.012349 0.000007 -128.274463 -0.000001 -25.919974 -17.897264 -3.754295 -5.961458 -2.837574 10.742897 14.407883 29.222763 -15.759652 7.385541 42.977637 14.833328 0.000000 0.000000 -0.000002 2.103795 7.644611 -81.428177 5.935246 5.850458 -90.825875 2.100077 4.493746 -50.078711 -0.000000 -0.000001 -0.000002 2.958117 7.635441 -75.641408 5.697282 5.849048 -88.491473 2.517354 4.811204 -55.220058 0.000000 -0.000001 -0.000002 3.835530 7.918661 -79.673071 6.476779 5.817625 -96.149673 2.784129 4.985230 -58.343353 0.000001 -0.000002 -0.000000 5.526757 8.476064 -83.993910 5.917487 5.850713 -90.651500 2.134328 4.522105 -50.514464 -0.000001 0.000001 -0.000004 1.866001 15.192654 -1.511226 -41.500246 29.337220 70.600804 0.000069 117.455061 -0.000067 -9.770475 16.714246 -19.863476 -1.728425 7.812206 1.364848 15.713129 -37.130968 2.966654 1.035185 -32.179897 -21.931589 -0.000001 -0.000001 -0.000002 2.263133 -6.383004 74.920058 5.201669 -4.625287 96.721564 3.222984 -4.431303 72.045634 0.000002 -0.000000 -0.000001 2.892350 -6.596517 73.557900 5.634215 -4.553741 102.123131 2.979098 -4.344957 68.858928 -0.000003 0.000002 -0.000002 3.292076 -6.713205 73.313755 5.866903 -4.497637 105.071505 3.295802 -4.454177 72.985953 -0.000000 -0.000000 0.000000 4.114416 -7.224123 75.542329 5.189309 -4.626749 96.568042 3.490879 -4.509075 75.481732 -0.000002 0.000002 -0.000001 -28.589413 13.355259 17.495297 78.285511 2.299510 11.717197 -35.686840 3.734946 -9.029926 -18.086841 0.000009 0.000011 0.000000 0.000001 0.000001 -23.850758 -4.822818 -32.134377 31.197982 7.811953 -7.350194 1.947660 1.328074 34.592466 0.107405 -0.000650 0.285322 -0.000000 -0.000000 -0.000000 
